<svg xmlns="http://www.w3.org/2000/svg" width="109" height="38" viewBox="0 0 109 38">
    <g fill="none" fill-rule="evenodd">
        <path fill="#FFF" d="M74.411 15.398c1.15 0 2.201.474 2.974 1.465v-1.228h2.518v8.94c0 3.629-2.816 4.522-5.175 4.522-1.626 0-2.915-.376-4.124-1.427l1.13-1.806c.773.833 1.805 1.17 2.994 1.17 1.21 0 2.657-.514 2.657-2.458v-.93c-.754.95-1.785 1.486-2.974 1.486-2.38 0-4.223-1.665-4.223-4.858 0-3.131 1.804-4.876 4.223-4.876zm11.828-.002c2.875 0 4.798 2.142 4.798 5.255v.595h-7.118c.178 1.17 1.13 2.14 2.757 2.14.812 0 1.922-.335 2.537-.931l1.131 1.666c-.953.872-2.459 1.328-3.947 1.328-2.914 0-5.115-1.963-5.115-5.036 0-2.776 2.063-5.017 4.957-5.017zm20.253-2.379v2.618h1.944v2.2h-1.944v4.302c0 .616.318 1.071.873 1.071.377 0 .734-.139.873-.297l.535 1.922c-.377.337-1.05.615-2.103.615-1.763 0-2.695-.91-2.695-2.637v-4.976h-1.587v-2.2h1.587v-2.618h2.517zm-47.086 2.618v9.577h-2.518v-9.577h2.518zm9.276 0v9.577h-2.517v-9.577h2.516zm-20.377-3.648c4.143 0 7.018 2.637 7.018 6.602 0 4.005-2.875 6.622-7 6.622H43.09V11.987h5.215zm49.921 3.41c2.121 0 3.132 1.19 3.132 3.053v6.76H98.82v-5.788c0-1.328-.693-1.785-1.764-1.785-.99 0-1.745.556-2.18 1.11v6.464h-2.519v-9.576h2.518v1.229c.615-.713 1.804-1.467 3.351-1.467zm-34.181-3.41V25.21h-2.519V11.986h2.519zm11.18 5.65c-1.449 0-2.44.992-2.44 2.637 0 1.646.991 2.636 2.44 2.636.81 0 1.724-.474 2.16-1.09v-3.113c-.436-.613-1.35-1.07-2.16-1.07zm-26.901-3.172h-2.42v8.267h2.4c2.617 0 4.144-1.883 4.144-4.143 0-2.32-1.426-4.124-4.124-4.124zm37.915 2.994c-1.565 0-2.24 1.091-2.34 2.043h4.719c-.079-.913-.714-2.043-2.379-2.043zm-28.102-5.848a1.49 1.49 0 0 1 1.507 1.487c0 .833-.674 1.507-1.507 1.507a1.502 1.502 0 0 1-1.487-1.507c0-.833.674-1.487 1.487-1.487zm9.276 0a1.49 1.49 0 0 1 1.508 1.487c0 .833-.675 1.507-1.508 1.507a1.502 1.502 0 0 1-1.486-1.507c0-.833.673-1.487 1.486-1.487z"/>
        <path fill="#931A1D" d="M0 37.8s4.244-.004 13.979 0c1.374 0 3.24-.062 4.36-.204 3.537-.451 6.102-1.618 8.137-2.787 1.998-1.148 4.378-3.228 6.107-6.33l-8.754-15.662L-.001 37.8z"/>
        <path fill="#EE312E" d="M27.158 3.419C23.425.906 18.703-.001 15.039-.001 7.243 0 .003.002.003.002l23.826 12.816 6.854-6.27a17.602 17.602 0 0 0-3.525-3.128"/>
        <path fill="#AF282E" d="M32.583 28.48c1.4-2.51 2.375-5.685 2.375-9.58 0-5.419-1.792-9.46-4.274-12.353l-6.856 6.27 8.755 15.663z"/>
        <path fill="#D02F2B" d="M.003 0L0 37.8l23.829-24.982z"/>
    </g>
</svg>
